<svg id="Layer_3" height="512" viewBox="0 0 24 24" width="512" xmlns="http://www.w3.org/2000/svg" data-name="Layer 3"><path d="m4 14.5a.5.5 0 1 1 .5.5.5.5 0 0 1 -.5-.5zm4.5-7.5h8a1.5 1.5 0 0 1 1.5 1.5v8a1.5 1.5 0 0 1 -1.5 1.5h-8a1.5 1.5 0 0 1 -1.5-1.5v-8a1.5 1.5 0 0 1 1.5-1.5zm6.949 10a2.989 2.989 0 0 0 -5.9 0zm-2.949-3.5a1.75 1.75 0 1 0 -1.75-1.75 1.752 1.752 0 0 0 1.75 1.75zm4-5.5h-8a.5.5 0 0 0 -.5.5v8a.5.5 0 0 0 .5.5h.051a3.985 3.985 0 0 1 2.249-3.106 2.75 2.75 0 1 1 3.4 0 3.985 3.985 0 0 1 2.249 3.106h.051a.5.5 0 0 0 .5-.5v-8a.5.5 0 0 0 -.5-.5zm-8 13a.5.5 0 0 0 0-1h-2a1.5 1.5 0 0 1 -1.5-1.5v-2a.5.5 0 0 0 -1 0v2a2.5 2.5 0 0 0 2.5 2.5zm12-11a.5.5 0 1 0 .5.5.5.5 0 0 0 -.5-.5zm-2-6h-2a.5.5 0 0 0 0 1h2a1.5 1.5 0 0 1 1.5 1.5v2a.5.5 0 0 0 1 0v-2a2.5 2.5 0 0 0 -2.5-2.5zm2 8a.5.5 0 1 0 .5.5.5.5 0 0 0 -.5-.5zm0 2a.5.5 0 1 0 .5.5.5.5 0 0 0 -.5-.5zm0 2a.5.5 0 0 0 -.5.5v2a1.5 1.5 0 0 1 -1.5 1.5h-2a.5.5 0 0 0 0 1h2a2.5 2.5 0 0 0 2.5-2.5v-2a.5.5 0 0 0 -.5-.5zm-9.5-11.5a.5.5 0 1 0 -.5.5.5.5 0 0 0 .5-.5zm-6.5 4.5a.5.5 0 0 0 .5-.5v-2a1.5 1.5 0 0 1 1.5-1.5h2a.5.5 0 0 0 0-1h-2a2.5 2.5 0 0 0 -2.5 2.5v2a.5.5 0 0 0 .5.5zm7.5 11.5a.5.5 0 1 0 .5-.5.5.5 0 0 0 -.5.5zm2 0a.5.5 0 1 0 .5-.5.5.5 0 0 0 -.5.5zm1-16a.5.5 0 1 0 -.5.5.5.5 0 0 0 .5-.5zm-10.5 6.5a.5.5 0 1 0 -.5-.5.5.5 0 0 0 .5.5zm5.5 9.5a.5.5 0 1 0 .5-.5.5.5 0 0 0 -.5.5zm-5.5-7.5a.5.5 0 1 0 -.5-.5.5.5 0 0 0 .5.5zm8.5-8.5a.5.5 0 1 0 -.5.5.5.5 0 0 0 .5-.5z"/></svg>